<svg width="1024" height="1024" viewBox="0 0 1024 1024" fill="none" xmlns="http://www.w3.org/2000/svg">
<g clip-path="url(#clip0_3535_1640)">
<path d="M0 0C337.92 0 675.84 0 1024 0C1024 337.92 1024 675.84 1024 1024C686.08 1024 348.16 1024 0 1024C0 686.08 0 348.16 0 0Z" fill="#E5E5E5"/>
<path d="M563.785 104.628C570.446 111.971 574.143 119.619 574.098 129.515C574.094 130.766 574.091 132.016 574.088 133.304C574.08 134.606 574.071 135.908 574.063 137.25C574.058 138.567 574.054 139.884 574.049 141.242C574.037 144.494 574.021 147.747 574 151C574.914 150.841 575.829 150.683 576.771 150.519C586.357 148.976 596.303 148.907 606 148.812C606.649 148.799 607.299 148.786 607.968 148.773C621.345 148.749 634.398 151.198 647.26 154.666C649.457 155.255 651.66 155.813 653.865 156.371C661.99 158.488 669.093 161.079 676 166C677.052 166.742 678.104 167.485 679.188 168.25C688.261 177.121 695.01 189.557 695.196 202.414C695.214 203.516 695.233 204.617 695.251 205.752C695.267 206.957 695.282 208.162 695.297 209.404C695.317 210.678 695.336 211.953 695.357 213.266C695.411 216.775 695.459 220.284 695.505 223.794C695.556 227.519 695.611 231.244 695.665 234.969C695.757 241.275 695.845 247.581 695.93 253.887C696.016 260.253 696.106 266.619 696.201 272.985C696.763 310.992 697.16 348.987 697 387C698.579 387.494 700.16 387.983 701.742 388.47C702.623 388.743 703.503 389.016 704.41 389.297C712.044 391.367 721.214 391.335 728.438 388C733.504 385.014 737.8 381.088 742 377C740.05 370.37 740.05 370.37 737.875 363.812C734.208 352.025 734.292 337.653 739.516 326.48C743.273 320.202 747.359 316.9 754 314C755.134 313.835 756.269 313.67 757.438 313.5C758.283 313.335 759.129 313.17 760 313C760.689 311.342 761.352 309.673 762 308C767.218 300.737 772.54 296.82 781 294C797.37 292.83 811.408 296.396 824.125 307.125C835.587 317.893 842.546 333.856 843.336 349.578C843.613 363.895 841.643 375.801 832 387C829.819 389.244 827.511 391.135 825 393C824.117 393.66 823.234 394.32 822.324 395C820.411 396.408 818.485 397.8 816.547 399.175C814.712 400.489 812.931 401.879 811.188 403.312C800.705 408.861 788.904 409.184 777.766 405.933C773.71 404.564 769.846 402.87 766 401C765.319 401.701 764.639 402.402 763.938 403.125C762.959 404.084 761.98 405.042 761 406C760.072 406.928 759.144 407.856 758.188 408.812C754.511 411.931 750.409 414.032 746.125 416.187C745.465 416.52 744.806 416.853 744.126 417.196C734.883 421.702 727.21 423.472 716.875 423.312C715.83 423.315 714.784 423.318 713.707 423.322C708.044 423.282 703.459 422.615 698 421C697.992 421.84 697.984 422.68 697.976 423.545C697.897 431.503 697.81 439.461 697.713 447.419C697.663 451.509 697.616 455.599 697.578 459.69C697.541 463.645 697.495 467.6 697.442 471.555C697.424 473.056 697.408 474.557 697.397 476.058C697.238 495.718 693.319 513.39 679.438 528.125C666.145 540.799 651.722 545.214 633.75 546.75C632.407 546.875 631.065 547.001 629.723 547.128C626.483 547.431 623.242 547.722 620 548C620 548.66 620 549.32 620 550C621.659 551.354 623.381 552.631 625.125 553.875C634.731 560.887 643.756 568.611 652.25 576.937C652.992 577.662 652.992 577.662 653.749 578.402C656.306 580.991 658.468 583.583 660.441 586.644C662.748 590.189 664.813 593.172 668 596C672.029 596.74 675.429 596.58 679.5 596.21C684.25 595.924 687.32 597.067 691 600C692.687 601.645 694.357 603.309 696 605C697.16 603.406 697.16 603.406 698.344 601.781C710.092 585.775 723.595 571.158 744 567C757.891 565.912 770.373 569.136 781.125 578C787.999 584.523 792.109 591.359 792.606 600.987C792.84 626.236 771.553 648.753 755 666C754.198 666.843 754.198 666.843 753.379 667.703C745.693 675.742 737.731 683.011 728.806 689.651C726.926 691.055 725.067 692.483 723.207 693.914C708.89 704.814 695.492 711.752 677 710C668.926 707.684 664.003 702.884 659.703 695.89C654.839 686.942 651.497 676.453 650.188 666.375C649.697 663.543 649.367 662.353 647.281 660.343C645.888 659.366 644.474 658.419 643.039 657.503C638.486 654.145 635.612 648.538 634.656 643.011C634.158 635.592 636.944 630.538 640.566 624.296C642.249 620.427 642.352 618.966 641 615C639.444 612.628 637.924 610.541 636.125 608.375C635.384 607.462 635.384 607.462 634.628 606.531C633.103 604.672 631.557 602.832 630 601C629.548 600.465 629.095 599.93 628.629 599.378C612.355 580.351 586.355 558.494 561 554C558.266 554.025 555.622 554.126 552.902 554.328C552.121 554.378 551.339 554.429 550.534 554.482C548.869 554.591 547.205 554.704 545.541 554.821C543.046 554.996 540.551 555.16 538.055 555.32C530.992 555.778 523.931 556.262 516.874 556.8C514.972 556.943 513.07 557.087 511.168 557.23C509.76 557.336 509.76 557.336 508.324 557.445C502.998 557.831 497.687 558.101 492.349 558.238C477.427 557.871 477.427 557.871 463.922 562.473C460.806 566.15 459.633 570.242 458.572 574.872C457.651 578.298 455.941 581.164 454.125 584.187C453.139 585.883 453.139 585.883 452.133 587.613C440.164 607.097 424.052 620.526 401.703 626.421C395.694 627.707 390.029 628.07 383.906 627.781C382.366 627.734 380.826 627.69 379.285 627.648C376.887 627.58 374.493 627.499 372.097 627.375C362.793 626.586 362.793 626.586 354.519 629.918C352.798 632.2 351.405 634.515 350 637C344.304 641.728 338.227 643.834 331 645C328.793 651.242 328.765 657.048 328.688 663.625C328.237 679.222 324.372 689.525 313.211 700.808C304.201 709.057 293.75 711.525 281.719 711.3C271.339 710.461 265.137 705.224 258 698C257.423 697.444 256.845 696.888 256.25 696.316C245.258 684.837 243.588 669.324 243.633 654.241C244.369 621.298 261.426 582.956 284 559C288.544 555.056 291.685 553.66 297.797 553.75C301.702 554.193 304.987 555.813 308.5 557.5C309.275 557.855 310.051 558.21 310.85 558.576C314.751 560.382 318.584 562.285 322.375 564.312C331.557 569.285 331.557 569.285 341.836 570.109C347.606 569.817 352.009 572.769 356.313 576.312C359.459 579.254 361.589 581.855 363 586C363.039 587.999 363.044 590 363 592C377.143 594.808 391.411 595.961 404.25 588.187C411.656 582.609 415.793 573.499 419 565C418.154 564.951 417.309 564.902 416.438 564.851C414.736 564.739 414.736 564.739 413 564.625C411.886 564.555 410.773 564.485 409.625 564.414C406 564 406 564 402.3 562.977C397.985 561.876 394.011 561.806 389.582 561.945C387.981 561.97 386.38 561.995 384.779 562.019C382.302 562.068 379.826 562.124 377.349 562.191C357.761 562.688 341.566 557.798 327.053 544.072C323.458 540.565 320.136 536.919 317 533C314.485 533.944 312.159 534.904 309.852 536.289C302.428 540.743 295.424 540.714 287 540C286.01 539.67 285.02 539.34 284 539C276.931 538.352 271.575 538.798 265.242 541.976C251.788 548.117 233.916 545.633 219.971 542.444C218.033 542.007 216.085 541.616 214.137 541.226C186.628 535.538 139.743 523.166 122.129 499.484C114.887 487.883 114.221 475.725 117.063 462.55C118.495 456.636 120.213 450.815 122 445C122.321 443.937 122.642 442.874 122.973 441.779C123.957 438.552 124.971 435.337 126 432.125C126.461 430.655 126.461 430.655 126.932 429.155C129.447 421.595 132.467 413.93 139.547 409.656C144.619 406.397 146.131 400.906 148.25 395.5C149.086 393.446 149.924 391.394 150.766 389.343C151.304 387.985 151.304 387.985 151.853 386.599C153 384 153 384 154.69 381.373C156.382 378.941 156.382 378.941 155.188 375.687C154.983 375.006 154.778 374.326 154.566 373.625C151.006 357.123 157.33 343.633 166 330C168.489 326.493 171.169 323.235 174 320C174.846 319.01 175.691 318.02 176.563 317C186.976 305.04 199.799 295.058 216 293C217.018 292.981 218.037 292.963 219.086 292.945C222.195 292.877 224.98 292.752 228 292C229.593 290.224 230.163 288.631 230.961 286.39C235.261 276.498 245.009 270.012 254.625 266.187C265.775 262.451 275.394 262.932 286 268C294.087 272.492 299.07 279.543 301.691 288.312C303.145 294.656 305.002 303.996 302 310C303.65 310.33 305.3 310.66 307 311C306.97 309.735 306.939 308.471 306.908 307.168C306.391 285.276 305.891 263.378 305.768 241.48C305.756 239.724 305.739 237.968 305.717 236.212C305.475 216.528 308.346 198.893 322.707 184.171C323.464 183.455 324.22 182.738 325 182C325.664 181.365 326.328 180.731 327.012 180.078C336.953 171.518 350.293 167.25 363 165C363.913 164.835 364.827 164.671 365.768 164.501C371.559 163.602 377.406 163.332 383.25 162.937C384.522 162.846 385.795 162.755 387.105 162.662C394.083 162.183 401.006 161.861 408 162C407.843 160.726 407.685 159.452 407.523 158.14C405.901 143.374 404.848 128.071 414.43 115.757C423.715 104.638 434.731 98.8192 449 96.9995C451.612 96.8363 454.21 96.703 456.824 96.6106C457.948 96.5665 457.948 96.5665 459.094 96.5215C461.554 96.4259 464.013 96.3356 466.473 96.2456C468.2 96.18 469.928 96.1142 471.656 96.0481C475.274 95.9105 478.893 95.7755 482.512 95.6423C487.112 95.4729 491.712 95.298 496.312 95.1212C499.882 94.9844 503.452 94.8504 507.022 94.7171C508.716 94.6537 510.41 94.5895 512.103 94.5245C551.083 93.0377 551.083 93.0377 563.785 104.628Z" fill="#38200E"/>
<path d="M637 167.751C638.039 167.73 639.078 167.71 640.148 167.688C650.809 167.635 659.766 170.032 668 177.001C678.387 187.758 678.588 199.852 678.546 213.925C678.555 215.843 678.565 217.761 678.577 219.679C678.605 224.892 678.608 230.106 678.607 235.32C678.611 240.875 678.636 246.43 678.659 251.985C678.7 262.6 678.72 273.215 678.733 283.83C678.749 295.556 678.787 307.281 678.828 319.007C678.902 340.691 678.946 362.375 678.971 384.059C678.985 396.214 679.01 408.37 679.052 420.525C679.08 428.868 679.103 437.212 679.12 445.555C679.13 450.387 679.143 455.219 679.165 460.051C679.185 464.489 679.196 468.927 679.2 473.365C679.203 474.972 679.209 476.579 679.219 478.186C679.315 493.959 676.789 505.977 665.562 517.739C650.085 531.4 625.585 529.948 606.143 531.346C600.373 531.764 594.604 532.204 588.836 532.641C586.721 532.801 584.606 532.959 582.49 533.118C571.48 533.947 560.487 534.895 549.502 536.013C540.886 536.877 532.261 537.512 523.625 538.139C514.309 538.819 504.997 539.556 495.687 540.309C490.666 540.714 485.644 541.113 480.623 541.512C476.349 541.852 472.076 542.196 467.803 542.547C434.958 545.244 434.958 545.244 419.191 545.493C418.185 545.524 417.178 545.555 416.141 545.587C407.389 545.597 400.633 542.564 394.125 536.751C387.402 529.504 385.847 520.987 385.873 511.44C385.871 510.566 385.87 509.693 385.868 508.792C385.864 505.854 385.867 502.916 385.871 499.978C385.869 497.871 385.867 495.764 385.865 493.657C385.861 487.902 385.862 482.147 385.866 476.392C385.868 470.291 385.866 464.191 385.864 458.09C385.862 447.763 385.865 437.436 385.87 427.109C385.874 416.673 385.875 406.237 385.87 395.801C385.825 297.47 385.825 297.47 386.272 251.541C386.305 248.135 386.332 244.729 386.353 241.322C386.378 237.431 386.417 233.54 386.468 229.648C386.492 227.612 386.502 225.576 386.511 223.539C386.711 210.897 388.822 197.427 398 188.001C408.076 180.316 417.237 178.013 429.766 177.606C431.585 177.54 433.404 177.473 435.224 177.405C436.199 177.371 437.173 177.336 438.178 177.3C461.236 176.464 484.273 175.304 507.312 174.063C508.116 174.02 508.92 173.977 509.748 173.933C526.651 173.024 543.554 172.094 560.453 171.11C561.633 171.042 562.813 170.973 564.028 170.902C569.365 170.591 574.702 170.275 580.038 169.952C598.999 168.817 618.002 167.851 637 167.751Z" fill="#FB923C"/>
<path d="M747 783C760.294 792.742 769.455 808.747 772 825C773.914 843.567 770.618 861.679 758.77 876.542C747.464 890.011 731.013 897.645 713.575 899.218C694.963 900.365 678.343 896.053 663.75 883.937C651.977 872.701 644.323 856.838 643.664 840.547C643.495 829.676 643.569 820.083 648 810C648.601 808.503 648.601 808.503 649.215 806.976C656.423 790.721 670.077 780.463 686.103 773.723C706.49 765.951 729.277 771.55 747 783Z" fill="#38200E"/>
<path d="M542.209 772.742C543.298 772.735 544.386 772.729 545.508 772.723C546.691 772.727 547.875 772.731 549.094 772.735C550.918 772.732 550.918 772.732 552.78 772.729C555.362 772.728 557.945 772.731 560.527 772.74C564.456 772.75 568.384 772.74 572.312 772.727C574.823 772.728 577.333 772.731 579.844 772.735C581.594 772.729 581.594 772.729 583.38 772.723C597.635 772.803 610.276 775.267 620.793 785.469C627.471 793.128 628.944 801.271 628.41 811.188C627.579 818.913 625.586 823.921 619.75 829.126C618.515 830.103 617.27 831.069 616 832.001C616.675 832.52 617.351 833.04 618.047 833.575C618.939 834.272 619.831 834.97 620.75 835.688C621.632 836.373 622.513 837.057 623.422 837.762C629.005 842.609 633.112 848.537 634 856.001C634.66 865.406 632.928 874.858 626.723 882.192C617.457 891.919 607.314 896.359 593.848 897.197C590.305 897.28 586.767 897.304 583.223 897.301C581.934 897.306 580.646 897.31 579.319 897.314C576.613 897.322 573.908 897.322 571.203 897.316C567.737 897.31 564.272 897.327 560.806 897.351C557.487 897.369 554.167 897.365 550.848 897.364C548.982 897.378 548.982 897.378 547.079 897.392C545.356 897.382 545.356 897.382 543.598 897.373C542.587 897.373 541.575 897.374 540.533 897.375C537.514 896.929 536.831 896.389 535 894.001C534.625 891.779 534.625 891.779 534.626 889.136C534.619 888.133 534.612 887.131 534.604 886.098C534.612 884.999 534.62 883.9 534.628 882.768C534.624 881.61 534.62 880.452 534.617 879.259C534.608 875.421 534.622 871.584 534.637 867.747C534.637 865.088 534.637 862.429 534.635 859.77C534.634 854.194 534.645 848.618 534.664 843.042C534.685 836.591 534.688 830.139 534.682 823.688C534.677 817.486 534.682 811.285 534.693 805.083C534.697 802.442 534.698 799.8 534.697 797.159C534.696 793.474 534.709 789.789 534.725 786.104C534.723 785.003 534.72 783.902 534.718 782.768C534.725 781.768 534.732 780.769 534.739 779.739C534.742 778.431 534.742 778.431 534.745 777.097C535.307 772.471 538.299 772.748 542.209 772.742Z" fill="#371F0E"/>
<path d="M403.375 772.062C404.899 771.97 404.899 771.97 406.453 771.876C410.699 771.835 413.755 771.876 416.996 774.8C418.896 777.44 420.448 780.14 422 782.999C422.989 784.65 423.979 786.3 424.973 787.947C426.397 790.324 427.782 792.723 429.167 795.124C431.012 798.321 432.872 801.509 434.73 804.699C435.096 805.326 435.461 805.953 435.837 806.6C440.431 814.477 445.196 822.249 450 829.999C455.033 823.082 459.538 815.944 463.853 808.56C464.897 806.775 465.946 804.993 466.997 803.212C469.967 798.177 472.923 793.134 475.863 788.081C476.638 786.762 477.413 785.443 478.187 784.124C478.82 783.034 479.453 781.943 480.105 780.82C483.826 775.282 483.826 775.282 487 772.999C490.892 772.321 494.685 772.392 498.625 772.499C500.199 772.495 500.199 772.495 501.805 772.492C509.455 772.59 509.455 772.59 511.625 774.222C513.431 776.557 513.375 777.928 513.374 780.864C513.381 781.867 513.388 782.869 513.395 783.902C513.388 785.001 513.38 786.1 513.372 787.232C513.376 788.39 513.38 789.548 513.383 790.741C513.391 794.578 513.378 798.416 513.363 802.253C513.363 804.912 513.363 807.571 513.365 810.23C513.366 815.806 513.355 821.382 513.336 826.958C513.315 833.409 513.311 839.86 513.318 846.312C513.323 852.513 513.318 858.715 513.306 864.917C513.303 867.558 513.301 870.2 513.303 872.841C513.303 876.526 513.291 880.211 513.275 883.896C513.277 884.997 513.28 886.098 513.282 887.232C513.275 888.232 513.268 889.231 513.261 890.261C513.258 891.569 513.258 891.569 513.254 892.903C513 894.999 513 894.999 511 896.999C507.206 897.454 503.38 897.323 499.562 897.312C498.5 897.328 497.437 897.344 496.342 897.361C494.813 897.362 494.813 897.362 493.254 897.363C492.319 897.366 491.384 897.369 490.42 897.372C488 896.999 488 896.999 486.376 895.887C484.341 893.095 484.599 890.846 484.568 887.417C484.552 886.421 484.552 886.421 484.537 885.405C484.506 883.214 484.497 881.023 484.488 878.831C484.471 877.311 484.453 875.791 484.434 874.271C484.386 870.271 484.356 866.271 484.33 862.271C484.301 858.189 484.254 854.107 484.209 850.025C484.123 842.016 484.055 834.008 484 825.999C477.375 835.774 471.056 845.676 465 855.812C463.877 857.689 462.753 859.565 461.625 861.439C460.624 863.105 459.626 864.772 458.629 866.44C457 868.999 457 868.999 455 870.999C452.976 871.335 452.976 871.335 450.625 871.374C449.854 871.403 449.083 871.431 448.289 871.46C444.5 870.697 442.612 867.915 440.527 864.795C440.073 864.003 439.62 863.21 439.152 862.394C438.366 861.039 438.366 861.039 437.564 859.658C437.027 858.718 436.491 857.779 435.937 856.812C430.297 846.979 424.206 837.481 418 827.999C417.996 828.805 417.993 829.61 417.989 830.44C417.951 838.033 417.894 845.625 417.816 853.217C417.777 857.12 417.744 861.023 417.729 864.927C417.714 868.694 417.679 872.461 417.632 876.228C417.617 877.665 417.609 879.102 417.608 880.539C417.606 882.552 417.576 884.565 417.546 886.578C417.537 887.724 417.528 888.87 417.519 890.051C416.89 893.626 415.847 894.814 413 896.999C410.482 897.501 410.482 897.501 407.684 897.495C406.672 897.496 405.661 897.497 404.619 897.497C403.569 897.477 402.519 897.457 401.437 897.437C400.384 897.444 399.33 897.451 398.244 897.458C390.522 897.394 390.522 897.394 388.375 895.77C386.591 893.474 386.618 892.159 386.605 889.268C386.594 888.295 386.583 887.323 386.571 886.32C386.574 885.254 386.577 884.188 386.58 883.09C386.572 881.966 386.563 880.842 386.554 879.684C386.531 875.958 386.53 872.233 386.531 868.507C386.524 865.923 386.516 863.338 386.508 860.754C386.495 855.331 386.493 849.909 386.499 844.487C386.506 838.223 386.483 831.96 386.446 825.696C386.411 819.667 386.405 813.639 386.409 807.61C386.407 805.046 386.397 802.483 386.38 799.919C386.357 796.335 386.367 792.752 386.385 789.168C386.371 788.106 386.358 787.044 386.344 785.95C386.427 778.759 386.427 778.759 389.378 774.847C393.836 771.706 398.073 772.079 403.375 772.062Z" fill="#38200E"/>
<path d="M147.636 772.726C149.41 772.712 149.41 772.712 151.219 772.697C152.506 772.698 153.792 772.699 155.117 772.7C156.453 772.696 157.789 772.692 159.125 772.687C161.935 772.679 164.744 772.68 167.554 772.685C171.122 772.691 174.69 772.674 178.258 772.651C181.024 772.636 183.79 772.635 186.556 772.638C188.501 772.637 190.446 772.624 192.391 772.609C205.504 772.677 218.223 775.073 228.289 784.04C237.91 794.237 241.571 805.768 241.312 819.594C240.139 832.381 234.624 842.22 225.125 850.59C222.54 852.306 219.964 853.129 217 854.001C218.765 856.983 220.538 859.961 222.312 862.938C223.114 864.287 223.114 864.287 223.932 865.663C226.622 870.156 229.357 874.594 232.281 878.938C232.791 879.699 233.301 880.459 233.827 881.243C234.8 882.681 235.785 884.11 236.784 885.53C240.083 890.412 240.083 890.412 239.618 893.72C239.414 894.472 239.21 895.225 239 896.001C234.98 896.199 230.963 896.344 226.939 896.44C225.573 896.48 224.208 896.535 222.843 896.604C211.599 897.162 211.599 897.162 207.905 894.479C206.307 892.399 205.154 890.353 204 888.001C203.163 886.614 202.321 885.231 201.473 883.852C200.667 882.444 199.864 881.035 199.062 879.626C198.181 878.138 197.298 876.651 196.414 875.165C194.961 872.704 193.652 870.286 192.398 867.712C190.801 864.748 189.735 862.985 187 861.001C181.408 859.58 175.72 859.876 170 860.001C170.016 861.015 170.031 862.029 170.048 863.074C170.102 866.837 170.136 870.599 170.165 874.362C170.18 875.991 170.2 877.619 170.226 879.248C170.263 881.589 170.28 883.929 170.293 886.27C170.308 886.998 170.324 887.727 170.34 888.477C170.341 891.331 170.316 893.476 168.822 895.957C164.749 898.291 159.56 897.467 155 897.438C153.894 897.458 152.788 897.478 151.648 897.499C150.059 897.498 150.059 897.498 148.437 897.497C147.467 897.499 146.496 897.5 145.496 897.502C143 897.001 143 897.001 141.367 895.278C139.77 892.618 139.625 891.136 139.626 888.053C139.619 887.058 139.612 886.062 139.604 885.037C139.612 883.951 139.62 882.865 139.628 881.746C139.624 880.598 139.62 879.45 139.617 878.266C139.608 874.467 139.622 870.667 139.637 866.868C139.637 864.233 139.637 861.598 139.635 858.963C139.634 853.439 139.645 847.917 139.664 842.394C139.685 836.004 139.688 829.615 139.682 823.226C139.677 817.081 139.682 810.937 139.693 804.792C139.697 802.176 139.698 799.559 139.697 796.943C139.696 793.294 139.709 789.645 139.725 785.996C139.723 784.906 139.72 783.816 139.718 782.693C139.728 781.209 139.728 781.209 139.739 779.694C139.741 778.831 139.743 777.968 139.745 777.078C140.332 772.293 143.638 772.744 147.636 772.726Z" fill="#38200E"/>
<path d="M266.437 772.539C267.497 772.542 268.557 772.546 269.648 772.55C270.754 772.575 271.86 772.599 273 772.625C274.106 772.626 275.212 772.627 276.351 772.628C284.578 772.718 284.578 772.718 288 775C288.301 777.46 288.406 779.673 288.385 782.136C288.39 782.871 288.395 783.607 288.401 784.364C288.411 785.965 288.414 787.565 288.411 789.165C288.406 791.706 288.42 794.245 288.439 796.786C288.476 802.19 288.489 807.595 288.5 813C288.512 819.237 288.534 825.474 288.58 831.711C288.593 834.2 288.589 836.689 288.584 839.178C288.536 852.807 288.536 852.807 294.187 864.875C301.902 870.703 308.237 872.171 318 871C324.309 869.35 328.431 866.563 332 861C335.85 852.356 335.441 843.619 335.441 834.347C335.453 832.638 335.466 830.93 335.481 829.221C335.517 824.749 335.538 820.276 335.553 815.804C335.578 808.621 335.617 801.439 335.675 794.257C335.691 791.75 335.695 789.242 335.698 786.735C335.708 785.207 335.718 783.68 335.729 782.152C335.726 781.453 335.724 780.755 335.721 780.035C335.772 775.227 335.772 775.227 338 773C341.938 772.516 345.91 772.629 349.875 772.625C350.977 772.6 352.079 772.576 353.215 772.55C354.276 772.546 355.337 772.543 356.43 772.539C357.401 772.53 358.373 772.522 359.374 772.514C362.872 773.161 363.848 774.178 366 777C366.395 779.697 366.548 781.987 366.517 784.683C366.524 785.453 366.531 786.222 366.539 787.015C366.556 789.561 366.545 792.106 366.531 794.652C366.534 796.431 366.538 798.21 366.543 799.989C366.549 803.724 366.54 807.459 366.521 811.194C366.499 815.948 366.512 820.702 366.536 825.456C366.55 829.136 366.545 832.815 366.535 836.495C366.533 838.246 366.536 839.996 366.545 841.746C366.612 857.812 364.202 871.453 353.262 883.992C341.501 895.325 325.415 899.503 309.561 899.424C293.09 898.963 280.498 892.596 269 881C258.34 868.416 257.537 854.363 257.601 838.566C257.599 836.798 257.597 835.029 257.593 833.261C257.588 829.577 257.595 825.894 257.609 822.21C257.626 817.49 257.616 812.77 257.598 808.05C257.587 804.409 257.591 800.767 257.598 797.125C257.6 795.384 257.598 793.643 257.591 791.902C257.583 789.475 257.595 787.049 257.612 784.623C257.606 783.906 257.6 783.19 257.593 782.452C257.633 779.366 257.849 777.27 259.368 774.553C261.692 772.341 263.269 772.512 266.437 772.539Z" fill="#371F0E"/>
<path d="M505.758 699.682C509.565 699.687 513.372 699.69 517.18 699.692C657.215 699.81 657.215 699.81 677 713C676 716 676 716 674.199 717.062C664.717 720.601 654.981 721.774 645 723C643.739 723.16 642.478 723.32 641.179 723.485C623.344 725.728 605.521 727.318 587.562 728.105C586.16 728.168 586.16 728.168 584.729 728.233C563.792 729.157 542.87 729.317 521.915 729.257C518.938 729.25 515.962 729.245 512.986 729.241C363.844 729.023 363.844 729.023 341 717C340.34 716.01 339.68 715.02 339 714C348.246 703.329 372.501 703.983 385.562 702.937C425.575 700.184 465.665 699.622 505.758 699.682Z" fill="#37200E"/>
<path d="M773 773.001C776.854 772.942 780.708 772.907 784.562 772.876C785.649 772.859 786.735 772.842 787.854 772.825C801.117 772.744 801.117 772.744 806.211 776.731C808.358 779.455 809.971 782.263 811.625 785.313C814.673 790.807 817.915 796.131 821.375 801.376C821.804 802.036 822.233 802.697 822.674 803.377C823.728 804.956 824.857 806.484 826 808.001C826.66 808.001 827.32 808.001 828 808.001C829.602 806.057 831.058 804.122 832.5 802.063C832.937 801.447 833.374 800.831 833.824 800.197C837.777 794.524 841.288 788.618 844.688 782.601C845.078 781.914 845.469 781.228 845.871 780.52C846.38 779.609 846.38 779.609 846.9 778.68C848.935 775.573 850.438 774.188 854 773.001C858.184 772.767 862.373 772.816 866.562 772.813C867.725 772.801 868.887 772.789 870.084 772.776C871.746 772.773 871.746 772.773 873.441 772.77C874.968 772.764 874.968 772.764 876.526 772.758C879 773.001 879 773.001 881 775.001C880.686 779.057 879.18 781.593 876.875 784.876C872.651 791.022 868.562 797.246 864.5 803.501C849.63 826.337 849.63 826.337 847.172 828.927C845.712 831.002 845.712 831.002 846.453 833.669C848.529 838.14 851.069 842.182 853.75 846.313C854.341 847.237 854.932 848.161 855.541 849.114C859.558 855.352 863.686 861.508 867.855 867.645C868.87 869.144 869.884 870.643 870.897 872.142C872.908 875.115 874.936 878.075 876.974 881.029C877.909 882.407 878.843 883.786 879.777 885.165C880.219 885.796 880.661 886.428 881.117 887.078C884.012 891.395 884.012 891.395 883.951 894.365C883 896.001 883 896.001 880 897.001C873.159 897.733 866.269 897.86 859.395 897.696C858.29 897.67 857.185 897.645 856.046 897.618C852.246 896.848 850.631 895.425 848 892.626C846.941 890.445 845.949 888.232 845 886.001C843.249 882.949 841.366 879.983 839.5 877.001C838.566 875.452 837.632 873.902 836.699 872.352C833.432 867.006 829.819 861.969 826 857.001C824.415 859.291 822.832 861.583 821.25 863.876C820.761 864.584 820.271 865.293 819.767 866.023C817.062 869.955 814.392 873.905 811.773 877.895C811.247 878.695 810.721 879.495 810.179 880.32C809.164 881.867 808.154 883.417 807.149 884.971C800.278 895.434 800.278 895.434 795.16 896.708C793.627 896.76 793.627 896.76 792.062 896.813C790.933 896.857 789.804 896.901 788.641 896.946C787.439 896.964 786.238 896.982 785 897.001C783.716 897.039 782.432 897.078 781.109 897.118C774.02 897.249 774.02 897.249 771 897.001C770.34 896.341 769.68 895.681 769 895.001C769.089 889.748 772.588 885.681 775.434 881.509C775.986 880.686 776.538 879.863 777.106 879.015C778.876 876.38 780.656 873.753 782.438 871.126C783.602 869.397 784.765 867.668 785.928 865.938C790.285 859.462 794.643 852.986 799.043 846.539C799.957 845.19 800.871 843.842 801.785 842.493C802.201 841.889 802.618 841.284 803.047 840.661C805.817 836.642 805.817 836.642 807 832.001C805.901 829.723 804.764 827.784 803.375 825.688C802.951 825.029 802.528 824.37 802.091 823.69C795.581 813.662 788.791 803.809 782.048 793.936C780.77 792.058 779.498 790.177 778.228 788.294C776.897 786.326 775.553 784.367 774.182 782.427C772.738 780.313 772.738 780.313 771 777.001C771.891 774.794 771.891 774.794 773 773.001Z" fill="#38200E"/>
<path d="M166 389C169.754 389.72 172.861 391.331 176.25 393.062C177.328 393.61 178.405 394.158 179.516 394.723C180.336 395.144 181.155 395.566 182 396C181.567 397.572 181.567 397.572 181.125 399.176C180.75 400.555 180.375 401.934 180 403.312C179.714 404.348 179.714 404.348 179.422 405.404C178.623 408.358 178 410.926 178 414C184.361 416.514 190.16 418.484 197 419C197.182 417.913 197.182 417.913 197.367 416.805C198.249 411.715 199.164 406.851 201 402C205.788 402.471 210.418 403.068 215.125 404.062C224.349 405.803 233.764 405.48 243 404C242.602 405.192 242.203 406.385 241.793 407.613C241.195 409.409 240.598 411.204 240 413C239.652 414.045 239.303 415.089 238.944 416.166C232.995 434.069 227.743 452.012 222.981 470.273C221.312 476.614 219.579 482.935 217.813 489.25C217.504 490.386 217.195 491.522 216.877 492.692C211.419 512.048 211.419 512.048 203 517C196.72 517.505 191.925 516.351 186.063 514.188C185.214 513.881 184.365 513.574 183.49 513.257C139.52 496.991 139.52 496.991 133.125 486C130.538 478.224 132.257 470.721 134.438 463.062C134.668 462.214 134.898 461.365 135.135 460.49C136.814 454.372 136.814 454.372 138 452C142.415 452.69 146.367 454.227 150.477 455.914C151.196 456.205 151.915 456.496 152.657 456.795C154.19 457.415 155.723 458.037 157.255 458.661C161.206 460.268 165.163 461.862 169.121 463.453C169.894 463.764 170.667 464.075 171.463 464.395C179.908 467.782 188.426 470.955 197 474C195.609 483.616 192.845 492.738 190 502C191.437 502.081 192.874 502.139 194.313 502.188C195.113 502.222 195.914 502.257 196.738 502.293C199.591 501.923 200.201 501.202 202 499C202.857 496.853 202.857 496.853 203.395 494.406C203.625 493.47 203.856 492.535 204.093 491.57C204.331 490.557 204.568 489.544 204.813 488.5C205.065 487.456 205.318 486.412 205.579 485.336C208.554 472.93 211.292 460.467 214 448C212.716 449.103 211.436 450.209 210.156 451.316C209.443 451.932 208.729 452.548 207.994 453.182C205.71 455.264 203.817 457.502 202 460C196.518 459.38 191.905 457.511 186.867 455.395C185.994 455.033 185.121 454.671 184.222 454.299C182.376 453.532 180.532 452.763 178.69 451.991C175.908 450.826 173.123 449.673 170.336 448.521C161.048 444.663 151.893 440.715 143 436C146.094 425.559 146.094 425.559 150.852 421.852C155.983 417.602 157.721 412.604 159.875 406.438C160.251 405.422 160.628 404.407 161.016 403.361C162.768 398.605 164.434 393.821 166 389Z" fill="#052F81"/>
<path d="M254 313.001C254.822 313.205 255.644 313.409 256.491 313.619C270.212 317.088 283.632 321.366 297 326.001C297 326.661 297 327.321 297 328.001C296.212 328.379 295.425 328.756 294.613 329.145C276.316 338.392 264.634 351.982 254.312 369.438C250.648 375.619 247.309 381.2 241 385.001C240.425 385.352 239.85 385.702 239.258 386.063C230.383 390.33 218.127 388.785 209 386.001C208.01 385.011 208.01 385.011 207 384.001C207.956 382.062 208.915 380.125 209.875 378.188C210.409 377.109 210.942 376.031 211.492 374.919C213 372.001 213 372.001 215 369.001C215 368.011 215 367.021 215 366.001C212.94 365.325 210.877 364.661 208.812 364.001C207.664 363.63 206.515 363.258 205.332 362.876C201.768 361.789 201.768 361.789 197 362.001C194.03 367.611 191.06 373.221 188 379.001C181.553 377.712 177.46 375.092 172.5 370.876C169.767 365.639 170.223 360.127 171.625 354.485C178.136 336.464 193.65 320.331 210.641 311.946C223.557 306.771 240.96 309.75 254 313.001Z" fill="#052F81"/>
<path d="M510.125 254.687C521.491 261.112 527.54 271.583 531 283.999C535.63 302.468 533.812 321.811 524.75 338.624C520.397 345.468 514.861 351.444 507 353.999C501.506 354.945 497.095 354.513 492.313 351.562C483.781 345.107 479.568 336.902 476 326.999C475.646 326.034 475.291 325.068 474.926 324.074C469.753 306.898 471.75 285.823 479.875 269.999C486.311 259.116 496.567 248.233 510.125 254.687Z" fill="#39200E"/>
<path d="M612 248C615.375 249.562 615.375 249.562 618 252C618.548 252.439 619.096 252.879 619.66 253.332C630.758 262.966 635.271 279.718 636.273 293.855C636.806 310.054 633.905 327.986 622.562 340.312C621.451 341.544 621.451 341.544 620.316 342.8C615.788 347.099 611.839 348.727 605.75 349.312C598.638 348.719 593.454 345.262 588.66 340.086C578.712 327.585 576.666 313.216 576.562 297.75C576.552 296.673 576.542 295.597 576.532 294.488C576.709 278.188 581.638 264 592.773 252.105C598.48 246.964 604.617 246.888 612 248Z" fill="#38200E"/>
<path d="M296 572C304.656 574.094 312.172 577.883 320 582C319.768 582.503 319.536 583.007 319.297 583.525C318.233 585.847 317.179 588.173 316.125 590.5C315.76 591.291 315.395 592.083 315.02 592.898C310.139 603.725 307.79 614.455 311.813 626C312.872 628.728 313.863 630.823 315.656 633.141C317 635 317 635 316.688 637.75C316.461 638.493 316.234 639.235 316 640C312.846 638.817 309.948 637.426 307 635.812C304.184 634.367 303.25 633.979 300 634.25C299.34 634.498 298.68 634.745 298 635C297.34 637.31 296.68 639.62 296 642C296.681 642.165 297.361 642.33 298.063 642.5C303.502 645.277 308.439 650.987 310.563 656.762C312.331 665.81 312.124 675.155 307 683C303.389 688.352 299.282 692.156 293 694C285.053 695.263 278.525 693.713 272 689C264.341 681.572 260.958 670.779 260.758 660.331C260.639 628.654 274.815 595.358 296 572Z" fill="#FB923C"/>
<path d="M364 184.001C363.53 184.509 363.059 185.017 362.574 185.54C355.111 193.791 352.871 200.209 352.811 211.265C352.802 212.088 352.794 212.912 352.785 213.76C352.759 216.497 352.739 219.233 352.719 221.97C352.701 223.905 352.683 225.841 352.664 227.777C352.625 231.888 352.588 235.999 352.554 240.11C352.465 250.723 352.359 261.337 352.254 271.95C352.244 272.996 352.233 274.041 352.223 275.119C352.048 292.852 351.796 310.583 351.438 328.313C351.404 329.968 351.404 329.968 351.37 331.657C351.253 337.438 351.13 343.22 351 349.001C349.793 349.46 348.587 349.919 347.344 350.392C345.729 351.011 344.115 351.631 342.5 352.251C341.313 352.701 341.313 352.701 340.102 353.161C339.315 353.464 338.529 353.767 337.719 354.079C337.007 354.351 336.294 354.624 335.561 354.904C331.961 356.446 328.488 358.223 325 360.001C324.868 346.507 324.737 333.012 324.609 319.518C324.549 313.248 324.489 306.978 324.427 300.708C324.288 286.555 324.16 272.402 324.05 258.249C324.019 254.287 323.985 250.325 323.946 246.363C323.907 242.292 323.878 238.221 323.857 234.15C323.848 232.74 323.836 231.33 323.82 229.92C323.679 216.978 325.491 205.634 334.563 195.751C340.253 190.457 356.045 180.023 364 184.001Z" fill="#FB923C"/>
<path d="M763.875 587.499C765.267 588.304 766.649 589.127 768 589.999C767.651 592.822 767.151 593.859 765.031 595.823C764.196 596.438 763.361 597.053 762.5 597.687C753.554 604.603 746.611 612.55 739.754 621.456C737.248 624.705 734.644 627.861 732 630.999C728.397 635.28 724.925 639.639 721.5 644.062C717.31 649.455 712.914 654.539 708.27 659.55C706.286 661.69 704.35 663.858 702.438 666.062C701.887 666.692 701.337 667.322 700.77 667.972C699.473 669.457 698.179 670.944 696.887 672.433C692.5 677.411 687.982 681.984 682.945 686.308C681.218 687.809 679.595 689.359 678 690.999C668.109 681.108 665.975 666.188 665.87 652.749C665.877 649.831 665.927 646.916 666 643.999C664.515 644.494 664.515 644.494 663 644.999C661.316 645.141 659.627 645.219 657.938 645.249C657.06 645.275 656.182 645.301 655.277 645.327C654.526 645.219 653.774 645.111 653 644.999C650.948 641.921 650.563 640.732 651.207 637.155C654.236 628.919 661.158 622.22 668 616.999C668.804 616.36 669.609 615.72 670.438 615.062C674.16 613.518 678.032 613.204 682 613.999C684.123 617.183 684.28 618.204 684.414 621.886C684.472 623.292 684.472 623.292 684.531 624.728C684.562 625.704 684.593 626.68 684.625 627.687C684.683 629.169 684.683 629.169 684.742 630.681C684.836 633.12 684.922 635.559 685 637.999C688.878 638.461 690.626 638.241 693.949 636.097C697.92 632.421 700.807 627.901 703.813 623.437C705.049 621.637 706.288 619.839 707.527 618.042C708.123 617.175 708.718 616.308 709.332 615.415C721.344 598.023 740.081 575.534 763.875 587.499Z" fill="#FB923C"/>
<path d="M707.312 797.562C708.154 797.571 708.996 797.58 709.863 797.589C719.869 797.868 726.637 800.73 733.953 807.644C742.694 817.702 743.7 828.005 743.175 840.769C742.467 849.801 738.496 857.751 732 864C723.009 870.819 714.164 872.982 703 872C693.467 870.301 685.34 865.503 679.281 857.929C672.745 848.085 672.014 837.496 673 826C675.11 815.869 680.567 808.407 688.777 802.324C695.107 798.553 700.021 797.469 707.312 797.562Z" fill="white"/>
<path d="M306 456C306.66 456.66 307.32 457.32 308 458C305.69 458.33 303.38 458.66 301 459C301 459.66 301 460.32 301 461C301.723 461.245 302.446 461.489 303.191 461.742C312.689 465.995 320.295 475.684 324.375 485.062C326.386 490.556 326.924 494.712 324.688 500.25C323.271 502.558 322.041 504.25 320 506C316.811 500.831 314.74 495.812 313 490C309.932 490.669 309.932 490.669 308.832 492.863C305.338 501.256 305.016 509.145 307 518C302.988 522.012 300.035 523.873 294.301 524.191C288.395 523.7 284.357 520.692 280.5 516.375C278 513.329 278 513.329 278 511C277.01 511 276.02 511 275 511C274.34 513.31 273.68 515.62 273 518C267.542 517.863 264.673 515.608 260.832 512.039C252.767 503.063 253.394 491.683 253.821 480.332C254.181 475.645 255.615 471.995 258 468C258.413 467.226 258.825 466.453 259.25 465.656C269.934 447.445 288.825 448.581 306 456Z" fill="#FB923C"/>
<path d="M351 378C350.996 379.108 350.996 379.108 350.992 380.239C350.925 398.243 350.876 416.247 350.845 434.251C350.829 442.957 350.808 451.664 350.774 460.37C350.744 467.961 350.724 475.552 350.718 483.143C350.714 487.161 350.705 491.178 350.683 495.195C350.662 498.981 350.656 502.767 350.661 506.554C350.66 507.938 350.654 509.323 350.642 510.708C350.565 520.472 350.965 529.088 357.5 536.812C358.088 537.52 358.676 538.228 359.281 538.957C359.848 539.631 360.416 540.305 361 541C362.008 542.327 363.011 543.658 364 545C351.511 542.953 340.689 536.481 333.063 526.312C330.173 521.672 330.173 521.672 330 519C331.547 516.555 331.547 516.555 333.75 513.875C340.596 504.863 341.777 496.692 340.789 485.641C339.373 476.009 334.948 466.796 327.933 460.117C322.772 454.346 322.79 449.023 322.832 441.531C322.817 440.256 322.803 438.98 322.787 437.666C322.769 434.978 322.767 432.296 322.792 429.608C322.821 426.186 322.764 422.772 322.682 419.351C322.618 416.057 322.636 412.763 322.645 409.469C322.613 408.253 322.581 407.037 322.549 405.784C322.663 400.526 322.869 397.286 326.423 393.247C329.19 390.958 331.98 388.939 335 387C335.614 386.568 336.227 386.137 336.859 385.692C338.186 384.767 339.56 383.91 340.938 383.062C341.813 382.517 342.688 381.972 343.59 381.41C349.418 378 349.418 378 351 378Z" fill="#FB923C"/>
<path d="M519.604 126.837C522.7 126.714 525.793 126.629 528.891 126.567C529.763 126.532 530.635 126.498 531.533 126.462C535.851 126.43 537.478 126.598 541.011 129.321C543.435 132.587 543.877 134.851 544.312 138.875C544.453 140.049 544.593 141.222 544.738 142.43C544.998 145.969 545.018 149.454 545 153C542.534 153.196 540.068 153.391 537.602 153.586C536.443 153.678 536.443 153.678 535.261 153.772C530.951 154.113 526.642 154.453 522.332 154.791C520.565 154.93 518.798 155.069 517.031 155.208C516.155 155.276 515.279 155.345 514.376 155.416C509.614 155.791 504.854 156.176 500.094 156.575C480.423 158.199 460.714 159.082 441 160C440.854 156.459 440.766 152.919 440.687 149.375C440.646 148.376 440.604 147.377 440.561 146.348C440.422 138.004 440.422 138.004 443.395 134.352C447.142 130.97 449.149 130.821 454.12 130.52C456.055 130.4 456.055 130.4 458.03 130.277C459.452 130.194 460.875 130.111 462.297 130.028C463.766 129.94 465.235 129.852 466.704 129.763C469.801 129.578 472.898 129.396 475.995 129.216C479.13 129.034 482.264 128.847 485.397 128.655C496.796 127.956 508.196 127.354 519.604 126.837Z" fill="#E5E5E5"/>
<path d="M302 349.001C305.962 352.106 306.811 354.68 307.519 359.626C308.449 370.652 308.449 370.652 305.914 374.759C302.727 378.368 298.848 381.138 295 384.001C284.578 393.728 275.952 410.61 273.016 424.34C270.235 436.927 270.235 436.927 264.109 440.875C262.257 441.934 260.391 442.963 258.516 443.981C248.643 449.365 244.021 458.94 240 469.001C238.73 465.402 239.279 463.107 240.344 459.489C240.676 458.359 241.008 457.228 241.35 456.064C241.729 454.826 242.109 453.588 242.5 452.313C242.694 451.673 242.887 451.033 243.087 450.374C246.848 437.998 251.176 425.832 255.625 413.688C255.938 412.833 256.251 411.978 256.573 411.096C259.819 402.25 263.159 393.442 266.687 384.704C266.956 384.027 267.225 383.35 267.502 382.653C272.293 370.973 286.748 345.881 302 349.001Z" fill="#052F81"/>
<path d="M801.992 312.875C804.518 314.071 806.721 315.386 809 317C809.705 317.497 810.41 317.993 811.137 318.504C821.303 326.54 826.707 338.415 828.414 351.071C828.838 359.61 826.54 367.23 821.426 374.121C819.001 376.568 817.186 377.86 813.727 378.27C808.772 377.965 805.381 376.767 802 373C797.538 365.498 795.937 358.742 797 350C799.623 342.214 803.361 336.781 810 332C809.494 329.832 809 328.001 808 326C804.819 325.535 802.747 325.491 800.043 327.336C798.306 328.843 796.63 330.38 795 332C790.959 330.401 788.321 327.514 785.375 324.438C782.036 320.773 782.036 320.773 778 318C778.25 316.125 778.25 316.125 779 314C784.791 309.923 795.45 310.962 801.992 312.875Z" fill="#FB923C"/>
<path d="M183.625 797.751C184.694 797.73 185.762 797.709 186.863 797.688C193.509 797.655 200.39 797.624 205.553 802.453C209.375 806.898 210.172 809.55 210.25 815.313C210.276 816.444 210.302 817.574 210.328 818.739C209.85 823.491 208.087 825.999 204.625 829.188C197.19 834.322 188.852 834.166 180.125 834.126C179.259 834.129 178.392 834.133 177.5 834.137C176.678 834.136 175.855 834.135 175.008 834.133C174.262 834.132 173.515 834.131 172.747 834.13C171 834.001 171 834.001 170 833.001C169.912 830.48 169.885 827.986 169.902 825.465C169.904 824.712 169.905 823.959 169.907 823.183C169.912 820.768 169.925 818.353 169.937 815.938C169.942 814.305 169.947 812.671 169.951 811.038C169.962 807.025 169.979 803.013 170 799.001C174.04 796.98 179.184 797.772 183.625 797.751Z" fill="#E5E5E5"/>
<path d="M773.625 330.999C779.202 334.33 781.979 338.936 784 344.999C784.118 346.621 784.175 348.248 784.188 349.874C784.202 350.717 784.216 351.56 784.231 352.429C783.976 355.268 783.172 357.415 782 359.999C775.048 360.445 770.403 360.672 765 355.999C765.269 362.691 765.925 367.566 770 372.999C772.801 374.589 775.354 375.081 778.5 375.812C782.591 377.2 784.04 378.898 787 381.999C791.136 385.033 795.37 387.784 800 389.999C800 390.659 800 391.319 800 391.999C787.092 392.883 777.614 388.481 767.871 380.187C758.612 371.472 752.983 360.386 751.652 347.679C751.458 340.801 752.347 336.984 757 331.749C761.981 327.391 768.048 328.229 773.625 330.999Z" fill="#FB923C"/>
<path d="M579.25 844.688C580.37 844.672 581.49 844.656 582.645 844.639C590.105 844.635 595.5 845.053 601.375 850C604.154 853.421 604.278 856.69 604.223 861.004C603.755 865.194 601.16 868.367 598 871C592.986 872.672 587.744 872.186 582.493 872.186C580.441 872.188 578.39 872.206 576.338 872.225C574.405 872.228 574.405 872.228 572.434 872.231C571.248 872.235 570.063 872.239 568.842 872.243C566 872 566 872 564 870C563.546 866.186 563.676 862.339 563.688 858.5C563.671 857.429 563.655 856.358 563.639 855.254C563.638 854.232 563.637 853.21 563.637 852.157C563.634 851.216 563.631 850.276 563.628 849.307C563.751 848.546 563.873 847.785 564 847C568.724 843.851 573.695 844.672 579.25 844.688Z" fill="#E5E5E5"/>
<path d="M573.365 796.678C574.462 796.681 575.558 796.684 576.688 796.687C578.303 796.663 578.303 796.663 579.951 796.639C586.075 796.635 590.631 796.963 596 800C599.252 803.567 599.526 807.13 599.348 811.785C598.79 815.339 597.389 817.36 595 820C589.297 823.936 583.405 823.411 576.75 823.312C575.649 823.316 574.548 823.319 573.414 823.322C565.267 823.267 565.267 823.267 563 821C562.741 818.785 562.741 818.785 562.734 816.062C562.732 815.085 562.729 814.108 562.727 813.102C562.734 812.078 562.742 811.054 562.75 810C562.742 808.976 562.735 807.953 562.727 806.898C562.729 805.921 562.732 804.944 562.734 803.937C562.737 803.039 562.739 802.141 562.741 801.215C563.421 795.4 568.82 796.709 573.365 796.678Z" fill="#E5E5E5"/>
<path d="M232 582C233.938 583.187 233.938 583.187 235 585C235.125 587.25 235.125 587.25 234 590C232.996 591.077 231.948 592.115 230.875 593.125C222.503 601.049 217.048 611.193 216.629 622.769C216.575 625.817 216.562 628.863 216.561 631.912C216.418 639.404 216.418 639.404 214.125 642.668C211.453 644.343 210.093 644.634 207 644C204.373 641.181 203.618 639.258 203.602 635.437C203.595 634.563 203.589 633.69 203.583 632.79C203.597 631.869 203.611 630.948 203.625 630C203.634 629.055 203.644 628.11 203.654 627.137C204.01 610.569 209.717 598.094 221 586C224.826 582.607 226.787 581.206 232 582Z" fill="#351F0F"/>
<path d="M238 469C238.33 469 238.66 469 239 469C238.84 470.272 238.68 471.545 238.516 472.855C236.825 488.187 235.962 505.077 245.371 518.094C247.665 520.778 250.228 522.822 253 525C253 525.66 253 526.32 253 527C229.933 527.621 229.933 527.621 220 524C219.34 523.34 218.68 522.68 218 522C218.412 521.484 218.825 520.969 219.25 520.438C229.763 505.794 233.479 486.214 238 469Z" fill="#052F81"/>
<path d="M279 283.999C284.144 289.429 285.236 293.936 285.07 301.206C285.047 301.798 285.024 302.389 285 302.999C277.081 302.363 269.61 300.095 262 297.937C260.639 297.555 259.279 297.174 257.918 296.794C254.61 295.868 251.305 294.936 248 293.999C251.6 287.794 255.833 284.221 262.562 281.624C268.96 280.461 273.42 280.403 279 283.999Z" fill="#E5E5E5"/>
<path d="M344 588C344.66 588.66 345.32 589.32 346 590C345.658 593.361 344.166 595.315 342.062 597.875C337.525 603.773 336.528 608.686 337 616C337.651 617.341 338.315 618.676 339 620C338.681 623.35 338.408 624.592 336 627C333.625 627.438 333.625 627.438 331 627C326.652 622.653 324.716 617.984 324.625 611.875C324.823 603.705 326.824 596.591 332.812 590.813C336.538 587.902 339.229 587.141 344 588Z" fill="#FB923C"/>
<path d="M305 218C305.33 218 305.66 218 306 218C306.873 249.006 307.13 279.983 307 311C305.35 310.67 303.7 310.34 302 310C301.971 306.542 301.953 303.083 301.938 299.625C301.929 298.64 301.921 297.655 301.912 296.641C301.909 295.7 301.906 294.759 301.902 293.789C301.897 292.92 301.892 292.05 301.886 291.155C302 289 302 289 303 287C303.15 284.816 303.237 282.627 303.297 280.439C303.317 279.766 303.336 279.092 303.357 278.399C303.421 276.17 303.478 273.94 303.535 271.711C303.578 270.167 303.622 268.623 303.665 267.079C303.78 263.011 303.888 258.944 303.996 254.877C304.106 250.728 304.222 246.579 304.338 242.43C304.564 234.287 304.784 226.143 305 218Z" fill="#EEE7D6"/>
<path d="M517 304C519.953 306.444 520.009 308.094 520.375 311.938C520.229 316.066 518.963 319.037 516 322C513.625 322.313 513.625 322.313 511 322C508.713 320.187 508.088 318.753 507.75 315.871C507.64 311.686 507.743 308.637 510 305C512.574 303.713 514.147 303.652 517 304Z" fill="white"/>
<path d="M617.563 297.5C620.45 298.092 621.214 298.696 623 301C623.926 305.92 623.706 309.896 621 314.125C620.34 314.744 619.68 315.363 619 316C616.111 315.688 614.414 315.357 612.188 313.438C610.494 309.961 610.332 306.748 611 303C612.871 299.675 613.773 298.239 617.563 297.5Z" fill="white"/>
<path d="M484 825C484.33 825 484.66 825 485 825C485.008 825.86 485.016 826.72 485.025 827.606C485.102 835.699 485.19 843.793 485.288 851.886C485.338 856.047 485.384 860.208 485.422 864.369C485.459 868.383 485.505 872.396 485.558 876.41C485.577 877.943 485.592 879.477 485.603 881.01C485.62 883.153 485.649 885.296 485.681 887.439C485.694 888.66 485.708 889.882 485.722 891.14C485.707 894.131 485.707 894.131 488 896C490.52 896.371 490.52 896.371 493.445 896.414C494.522 896.453 495.598 896.491 496.707 896.531C497.835 896.562 498.963 896.593 500.125 896.625C501.261 896.664 502.396 896.702 503.566 896.742C506.377 896.837 509.188 896.922 512 897C512 897.33 512 897.66 512 898C507.917 898.145 503.835 898.234 499.75 898.312C498.591 898.354 497.432 898.396 496.238 898.439C495.123 898.456 494.008 898.472 492.859 898.488C491.32 898.528 491.32 898.528 489.749 898.568C487 898 487 898 484.862 895.856C482.677 892.505 482.486 890.709 482.454 886.741C482.434 885.5 482.415 884.259 482.394 882.981C482.393 881.637 482.391 880.293 482.391 878.949C482.376 877.566 482.359 876.183 482.341 874.8C482.297 871.172 482.277 867.544 482.262 863.916C482.242 860.209 482.2 856.502 482.16 852.795C482.085 845.53 482.035 838.265 482 831C481.67 831.66 481.34 832.32 481 833C480.34 832.67 479.68 832.34 479 832C479.808 830.831 480.622 829.664 481.438 828.5C481.89 827.85 482.342 827.201 482.809 826.531C483.202 826.026 483.595 825.521 484 825Z" fill="#F7F0E0"/>
<path d="M306 417C306.33 417 306.66 417 307 417C307 424.26 307 431.52 307 439C304.03 438.01 301.06 437.02 298 436C298.538 431.014 300.117 427.482 302.562 423.125C303.203 421.973 303.844 420.82 304.504 419.633C305.244 418.33 305.244 418.33 306 417Z" fill="#C76522"/>
<path d="M268 623C268.66 623.99 269.32 624.98 270 626C269.34 626 268.68 626 268 626C267.879 626.617 267.758 627.235 267.633 627.871C267.465 628.718 267.298 629.565 267.125 630.438C266.854 631.82 266.854 631.82 266.578 633.23C266.232 634.888 265.857 636.54 265.422 638.176C263.23 646.49 263.031 655.62 265 664C264.67 664 264.34 664 264 664C264 666.97 264 669.94 264 673C259.686 668.686 260.752 661.701 260.749 655.939C260.909 644.477 263.072 633.407 268 623Z" fill="#C46F35"/>
<path d="M585 335C585.681 335.701 586.361 336.402 587.062 337.125C594.917 345.08 594.917 345.08 605.312 348.312C614.368 347.545 619.031 343.684 625 337C625 340.758 624.079 341.327 621.562 344C619.257 346.459 618.08 347.76 617 351C616.237 350.835 615.474 350.67 614.688 350.5C611.477 350.065 608.833 350.089 605.625 350.25C599.788 350.282 596.355 348.833 592 345C589.472 342.477 587.063 339.921 585 337C585 336.34 585 335.68 585 335Z" fill="#C97135"/>
<path d="M205 883C205.99 883.33 206.98 883.66 208 884C208.33 886.64 208.66 889.28 209 892C214.835 894.535 220.511 894.297 226.75 894.25C228.33 894.262 228.33 894.262 229.941 894.273C230.946 894.271 231.95 894.268 232.984 894.266C234.357 894.262 234.357 894.262 235.757 894.259C238.202 894.212 238.202 894.212 240 892C239.67 893.32 239.34 894.64 239 896C234.98 896.199 230.963 896.343 226.939 896.439C225.573 896.48 224.208 896.534 222.843 896.604C211.521 897.165 211.521 897.165 207.767 894.289C205.48 891.304 204.187 888.561 203 885C203.66 885 204.32 885 205 885C205 884.34 205 883.68 205 883Z" fill="#231007"/>
<path d="M238 469C238.33 469 238.66 469 239 469C238.847 470.236 238.693 471.472 238.535 472.746C237.895 478.508 237.66 484.272 237.437 490.062C237.394 491.119 237.351 492.175 237.307 493.264C237.202 495.842 237.099 498.421 237 501C236.67 501 236.34 501 236 501C235.34 498.03 234.68 495.06 234 492C233.34 493.98 232.68 495.96 232 498C231.012 494.91 231.016 493.019 231.926 489.918C232.145 489.15 232.365 488.383 232.592 487.592C232.83 486.798 233.067 486.005 233.312 485.188C233.539 484.406 233.765 483.624 233.998 482.818C234.445 481.278 234.895 479.739 235.35 478.201C236.254 475.14 237.127 472.07 238 469Z" fill="#052F81"/>
<path d="M303 348.001C304.812 349.438 304.812 349.438 306 351.001C306.99 351.331 307.98 351.661 309 352.001C309.081 355.064 309.141 358.125 309.188 361.188C309.213 362.053 309.238 362.917 309.264 363.808C309.32 368.731 309.18 371.969 306 376.001C305.34 375.671 304.68 375.341 304 375.001C304.66 374.341 305.32 373.681 306 373.001C306.226 370.186 306.324 367.502 306.312 364.688C306.329 363.928 306.345 363.169 306.361 362.386C306.365 357.741 305.918 354.82 303 351.001C301.911 349.687 301.911 349.687 299.25 349.876C296.366 349.987 293.801 350.342 291 351.001C294.774 347.227 297.936 347.519 303 348.001Z" fill="#341304"/>
<path d="M309 623C311.759 624.38 312.215 626.065 313.562 628.812C313.997 629.685 314.431 630.558 314.879 631.457C315.856 633.674 316.622 635.611 317 638C316.67 638.66 316.34 639.32 316 640C312.063 638.688 309.773 637.081 307 634C307.66 634 308.32 634 309 634C309.33 633.01 309.66 632.02 310 631C310.33 631.66 310.66 632.32 311 633C311.277 629.815 311.277 629.815 309 627C309 625.68 309 624.36 309 623Z" fill="#C86E30"/>
<path d="M530 281C532.186 283.186 532.422 284.073 533.062 287C533.555 289.212 533.983 290.967 535 293C535.028 294.792 534.988 296.585 534.914 298.375C534.848 299.976 534.848 299.976 534.781 301.609C534.73 302.728 534.678 303.847 534.625 305C534.581 306.119 534.537 307.238 534.492 308.391C534.129 316.742 534.129 316.742 533 319C533.66 319 534.32 319 535 319C535 319.66 535 320.32 535 321C534.01 321 533.02 321 532 321C531.67 321.99 531.34 322.98 531 324C531.165 322.721 531.33 321.442 531.5 320.125C532.786 306.95 532.154 294.038 530 281Z" fill="#CF7639"/>
<path d="M306 417C306.33 417 306.66 417 307 417C307 424.26 307 431.52 307 439C304.03 438.01 301.06 437.02 298 436C298.99 435.67 299.98 435.34 301 435C301 434.34 301 433.68 301 433C301.66 433 302.32 433 303 433C303 434.32 303 435.64 303 437C303.66 437 304.32 437 305 437C304.988 435.724 304.977 434.448 304.965 433.133C304.955 431.464 304.946 429.794 304.938 428.125C304.929 427.283 304.921 426.441 304.912 425.574C304.909 424.769 304.906 423.963 304.902 423.133C304.897 422.389 304.892 421.646 304.886 420.879C305 419 305 419 306 417Z" fill="#B76E3E"/>
<path d="M501 536C511.23 536 521.46 536 532 536C532 536.33 532 536.66 532 537C519.609 538.435 507.475 539.291 495 539C495 538.67 495 538.34 495 538C496.98 538 498.96 538 501 538C501 537.34 501 536.68 501 536Z" fill="#C97137"/>
<path d="M633 276C633.33 276.66 633.66 277.32 634 278C634.99 278 635.98 278 637 278C637.049 282.645 637.086 287.289 637.11 291.934C637.12 293.514 637.134 295.095 637.151 296.675C637.175 298.946 637.186 301.217 637.195 303.488C637.206 304.195 637.216 304.901 637.227 305.629C637.227 309.322 637.107 310.839 635 314C635.01 313.346 635.021 312.693 635.032 312.019C635.201 299.843 635.365 287.996 633 276Z" fill="#CF763B"/>
<path d="M558 531C569.55 531 581.1 531 593 531C593 531.33 593 531.66 593 532C589.542 532.341 586.084 532.671 582.625 533C581.659 533.095 580.694 533.191 579.699 533.289C574.959 533.734 570.221 534.105 565.461 534.25C564.673 534.276 563.884 534.302 563.072 534.328C561 534 561 534 558 531Z" fill="#CE7237"/>
<path d="M225 511C225.33 511.99 225.66 512.98 226 514C225.01 515.485 225.01 515.485 224 517C223.833 519.625 223.833 519.625 224 522C226.763 522.597 229.16 523 232 523C232 523.66 232 524.32 232 525C233.32 525.33 234.64 525.66 236 526C233.937 525.885 231.875 525.758 229.812 525.625C228.664 525.555 227.515 525.486 226.332 525.414C223 525 223 525 218 523C220.31 519.04 222.62 515.08 225 511Z" fill="#052F81"/>
<path d="M459.012 727.902C460.148 727.907 460.148 727.907 461.307 727.911C462.485 727.924 462.485 727.924 463.688 727.937C464.485 727.941 465.282 727.946 466.104 727.951C468.069 727.962 470.035 727.98 472 727.999C472 728.329 472 728.659 472 728.999C475.96 729.329 479.92 729.659 484 729.999C484 730.329 484 730.659 484 730.999C479.925 731.049 475.85 731.085 471.775 731.109C470.389 731.119 469.002 731.133 467.616 731.15C465.623 731.175 463.63 731.185 461.637 731.195C459.838 731.21 459.838 731.21 458.003 731.226C455 730.999 455 730.999 452 728.999C454.707 728.097 456.238 727.881 459.012 727.902Z" fill="#DED1BA"/>
<path d="M662 700C662.461 700.387 662.923 700.773 663.398 701.172C668.589 705.316 673.743 707.82 680 710C679.01 711.485 679.01 711.485 678 713C675.03 712.01 672.06 711.02 669 710C669 709.34 669 708.68 669 708C667.438 706.493 667.438 706.493 665.5 705C663.531 703.438 663.531 703.438 662 702C662 701.34 662 700.68 662 700Z" fill="#F5EEDE"/>
<path d="M277 691C283.6 691 290.2 691 297 691C292.906 694.07 292.304 694.398 287.562 694.312C286.636 694.309 285.709 694.305 284.754 694.301C281.857 693.984 279.641 693.203 277 692C277 691.67 277 691.34 277 691Z" fill="#CB6E30"/>
<path d="M312 579C314.352 579.599 316.686 580.269 319 581C319.33 581.66 319.66 582.32 320 583C319.379 584.696 319.379 584.696 318.348 586.695C317.983 587.411 317.619 588.126 317.244 588.863C316.854 589.61 316.464 590.356 316.062 591.125C315.676 591.879 315.29 592.633 314.893 593.41C313.935 595.277 312.969 597.139 312 599C311.67 598.34 311.34 597.68 311 597C311.777 595.012 311.777 595.012 312.938 592.688C315.133 588.043 315.133 588.043 315 583C313.583 581.249 313.583 581.249 312 580C312 579.67 312 579.34 312 579Z" fill="#C87136"/>
<path d="M277 284C281.161 285.74 282.381 287.713 284.25 291.691C285.474 295.46 285.326 299.087 285 303C283.02 302.67 281.04 302.34 279 302C280.32 301.67 281.64 301.34 283 301C282.104 294.378 281.261 289.256 277 284Z" fill="#EDE5D6"/>
<path d="M262 354C262 357.292 261.534 358.103 259.812 360.793C259.361 361.505 258.91 362.217 258.445 362.951C257.968 363.689 257.491 364.427 257 365.188C256.523 365.937 256.046 366.687 255.555 367.459C254.376 369.31 253.191 371.157 252 373C251.67 372.34 251.34 371.68 251 371C251.961 369.266 251.961 369.266 253.375 367.25C255.231 364.456 255.988 363.079 256.5 359.688C257 357 257 357 259.562 355.125C260.769 354.568 260.769 354.568 262 354Z" fill="#052F81"/>
<path d="M779 332C779.66 332 780.32 332 781 332C781.205 332.626 781.41 333.253 781.621 333.898C781.891 334.716 782.16 335.533 782.438 336.375C782.838 337.593 782.838 337.593 783.246 338.836C783.952 341.01 783.952 341.01 785 343C785.071 345.374 785.084 347.75 785.062 350.125C785.053 351.406 785.044 352.688 785.035 354.008C785.024 354.995 785.012 355.983 785 357C784.67 357 784.34 357 784 357C783.986 356.261 783.972 355.523 783.957 354.762C783.624 347.678 782.258 342.463 778.961 336.18C778.644 335.46 778.327 334.741 778 334C778.33 333.34 778.66 332.68 779 332Z" fill="#2E1507"/>
<path d="M652 636C652.33 636 652.66 636 653 636C653.33 638.31 653.66 640.62 654 643C656.97 643.495 656.97 643.495 660 644C660 643.01 660 642.02 660 641C660.66 641 661.32 641 662 641C662 641.66 662 642.32 662 643C663.32 642.67 664.64 642.34 666 642C664.258 644.174 663.384 644.936 660.59 645.398C659.715 645.391 658.839 645.383 657.938 645.375C656.621 645.387 656.621 645.387 655.277 645.398C654.526 645.267 653.774 645.135 653 645C650.852 641.778 650.706 640.722 651 637C651.33 636.67 651.66 636.34 652 636Z" fill="#C37139"/>
<path d="M178 395C179.32 395.33 180.64 395.66 182 396C180.35 401.94 178.7 407.88 177 414C176.101 410.403 175.958 408.398 176.313 404.812C176.391 403.932 176.47 403.052 176.551 402.145C176.699 401.437 176.847 400.729 177 400C177.66 399.67 178.32 399.34 179 399C179.33 398.01 179.66 397.02 180 396C179.34 395.67 178.68 395.34 178 395Z" fill="#052F81"/>
<path d="M199 408C199.33 408 199.66 408 200 408C199.913 409.959 199.805 411.917 199.688 413.875C199.629 414.966 199.571 416.056 199.512 417.18C199.343 418.11 199.174 419.041 199 420C196 422 196 422 193.957 421.758C191.971 421.172 189.986 420.586 188 420C188 419.67 188 419.34 188 419C190.97 419 193.94 419 197 419C197.66 415.37 198.32 411.74 199 408Z" fill="#052F81"/>
<path d="M669 180C673.75 184.236 676.772 188.432 677.188 194.938C677.126 195.618 677.064 196.299 677 197C676.34 196.01 675.68 195.02 675 194C674.34 194 673.68 194 673 194C673.083 193.134 673.165 192.267 673.25 191.375C672.943 187.231 671.409 185.313 669 182C669 181.34 669 180.68 669 180Z" fill="#C86F32"/>
<path d="M842 352C842.33 352 842.66 352 843 352C843.369 364.67 843.369 364.67 841 370C839.995 366.985 839.897 364.958 839.938 361.812C839.947 360.911 839.956 360.01 839.965 359.082C839.977 358.395 839.988 357.708 840 357C840.66 357 841.32 357 842 357C842 355.35 842 353.7 842 352Z" fill="#27150A"/>
<path d="M615 297.999C619.504 297.634 619.504 297.634 621.656 299.218C623.392 301.519 623.311 302.839 623.188 305.687C623.16 306.495 623.133 307.303 623.105 308.136C623.071 308.751 623.036 309.366 623 309.999C622.67 309.999 622.34 309.999 622 309.999C621.34 307.029 620.68 304.059 620 300.999C617.69 301.329 615.38 301.659 613 301.999C613.66 300.679 614.32 299.359 615 297.999Z" fill="#F3EDE0"/>
<path d="M855 817C855.33 817.66 855.66 818.32 856 819C853.906 823.954 851.116 828.494 847 832C846.67 831.34 846.34 830.68 846 830C848.97 825.71 851.94 821.42 855 817Z" fill="#F2ECDC"/>
<path d="M299 519C300.98 519 302.96 519 305 519C303.173 521.463 301.77 522.834 298.73 523.488C296.485 523.725 294.255 523.904 292 524C291.67 523.34 291.34 522.68 291 522C293.64 522 296.28 522 299 522C299 521.01 299 520.02 299 519Z" fill="#C86E31"/>
<path d="M270 426C271.055 429.194 270.976 431.04 269.812 434.188C269.451 435.23 269.451 435.23 269.082 436.293C268 438 268 438 265.887 438.738C265.264 438.825 264.641 438.911 264 439C265.5 436 265.5 436 267 433C267.217 432.041 267.217 432.041 267.438 431.062C268 429 268 429 270 426Z" fill="#052F81"/>
<path d="M152 420C152.66 420.33 153.32 420.66 154 421C150.25 426.875 150.25 426.875 148 428C147.273 429.979 146.602 431.98 146 434C144.757 431.062 144.987 430.033 146.187 427C147.886 424.188 149.566 422.182 152 420Z" fill="#052F81"/>
<path d="M792 599C792.33 599 792.66 599 793 599C793.33 600.65 793.66 602.3 794 604C794.33 604 794.66 604 795 604C795.125 610.75 795.125 610.75 794 613C793.01 613 792.02 613 791 613C791.33 608.38 791.66 603.76 792 599Z" fill="#C8BBA5"/>
<path d="M254 314C255.258 314.124 256.516 314.248 257.812 314.375C258.874 314.479 258.874 314.479 259.957 314.586C262 315 262 315 265 317C264.01 317.33 263.02 317.66 262 318C263.32 318.66 264.64 319.32 266 320C264.35 320 262.7 320 261 320C260.67 319.01 260.34 318.02 260 317C258.68 317 257.36 317 256 317C256 316.34 256 315.68 256 315C255.34 314.67 254.68 314.34 254 314Z" fill="#052F81"/>
<path d="M653 631C653.33 631.66 653.66 632.32 654 633C653.67 633.536 653.34 634.072 653 634.625C651.47 638.259 652.358 641.145 653 645C652.34 645 651.68 645 651 645C649.862 640.734 649 637.435 649 633C650.32 632.34 651.64 631.68 653 631Z" fill="#2E1407"/>
<path d="M756 584.999C756 585.329 756 585.659 756 585.999C751.05 586.329 746.1 586.659 741 586.999C740.67 587.989 740.34 588.979 740 589.999C738.68 589.339 737.36 588.679 736 587.999C742.801 584.86 748.566 584.665 756 584.999Z" fill="#D0793D"/>
<path d="M482 129C484.97 129 487.94 129 491 129C491.33 129.66 491.66 130.32 492 131C489.249 131.917 487.641 132.109 484.812 132.062C482.925 132.032 482.925 132.032 481 132C481.33 131.01 481.66 130.02 482 129Z" fill="#E0D5C1"/>
<path d="M613 246C613 246.66 613 247.32 613 248C613.99 248.33 614.98 248.66 616 249C613.013 250.493 611.048 249.406 607.875 248.562C606.779 248.275 605.684 247.988 604.555 247.691C603.712 247.463 602.869 247.235 602 247C602 246.67 602 246.34 602 246C606.018 245.159 609.018 244.946 613 246Z" fill="#CF7031"/>
<path d="M541.25 551.938C542.142 551.947 543.034 551.956 543.953 551.965C544.629 551.977 545.304 551.988 546 552C544.412 553.881 543.525 554.902 541.062 555.364C540.042 555.338 540.042 555.338 539 555.313C537.979 555.307 537.979 555.307 536.938 555.301C535 555 535 555 532 553C535.155 552.064 537.966 551.895 541.25 551.938Z" fill="#442D1B"/>
<path d="M257 505C257.99 505.495 257.99 505.495 259 506C259 506.66 259 507.32 259 508C259.66 508 260.32 508 261 508C261.33 507.01 261.66 506.02 262 505C263.125 506.75 263.125 506.75 264 509C263.125 511.25 263.125 511.25 262 513C257 507.25 257 507.25 257 505Z" fill="#C96F31"/>
<path d="M185 333C185.33 333.66 185.66 334.32 186 335C184.756 338.732 182.828 340.307 180 343C179.103 343.897 179.103 343.897 178.188 344.812C177.796 345.204 177.404 345.596 177 346C178.59 340.911 181.745 337.125 185 333Z" fill="#052F81"/>
<path d="M323 184C323.33 184.66 323.66 185.32 324 186C320.852 192.645 320.852 192.645 317.75 193.938C317.173 193.958 316.595 193.979 316 194C317.394 189.565 319.606 187.126 323 184Z" fill="#241208"/>
<path d="M714 609C714.75 610.688 714.75 610.688 715 613C712.866 616.277 711.75 617.75 708 619C709.37 615.005 711.257 612.2 714 609Z" fill="#CD7031"/>
<path d="M254 446C254.66 446.33 255.32 446.66 256 447C254.729 450.812 253.393 451.027 250 453C248.63 454.296 247.285 455.62 246 457C247.473 451.991 250.275 449.482 254 446Z" fill="#2F1206"/>
<path d="M302 421C303.305 424.916 302.322 426.039 300.562 429.688C300.089 430.681 299.616 431.675 299.129 432.699C298.57 433.838 298.57 433.838 298 435C297.34 434.01 296.68 433.02 296 432C296.33 431.01 296.66 430.02 297 429C297.66 429 298.32 429 299 429C299.309 428.051 299.619 427.103 299.938 426.125C301 423 301 423 302 421Z" fill="#331305"/>
<path d="M662 709C669.603 709.603 669.603 709.603 672 712C670.742 712.041 669.484 712.082 668.188 712.125C667.48 712.148 666.772 712.171 666.043 712.195C664 712 664 712 661 710C661.33 709.67 661.66 709.34 662 709Z" fill="#2A170B"/>
<path d="M301 433C301.66 433 302.32 433 303 433C303 434.32 303 435.64 303 437C303.66 437 304.32 437 305 437C305.33 435.68 305.66 434.36 306 433C306 434.98 306 436.96 306 439C303.36 438.01 300.72 437.02 298 436C298.99 435.67 299.98 435.34 301 435C301 434.34 301 433.68 301 433Z" fill="#CB753A"/>
<path d="M211 451C212.601 455.002 211.293 458.046 210 462C209.67 462 209.34 462 209 462C208.031 456.627 208.031 456.627 208 454C209.438 452 209.438 452 211 451Z" fill="#332217"/>
<path d="M807 321C807.33 321.66 807.66 322.32 808 323C808.66 323.33 809.32 323.66 810 324C811.537 326.346 812.092 327.446 811.625 330.25C811.419 330.827 811.213 331.405 811 332C810.134 330.329 810.134 330.329 809.25 328.625C807.577 325.668 806.35 324.077 803 323C804.32 323 805.64 323 807 323C807 322.34 807 321.68 807 321Z" fill="#CB7235"/>
<path d="M364 183C364 183.99 364 184.98 364 186C363.34 186.66 362.68 187.32 362 188C361.357 190.069 361.357 190.069 361 192C359.68 192.33 358.36 192.66 357 193C358.394 188.565 360.606 186.126 364 183Z" fill="#311508"/>
<path d="M283 514C283.99 514.33 284.98 514.66 286 515C286 516.32 286 517.64 286 519C286.33 519.66 286.66 520.32 287 521C283.839 519.63 283.007 519.011 281 516C281.66 516 282.32 516 283 516C283 515.34 283 514.68 283 514ZM286 514C288 515 288 515 288 515L286 514Z" fill="#CA6E31"/>
<path d="M601 248C598.03 249.65 595.06 251.3 592 253C592 251.35 592 249.7 592 248C597.625 246.875 597.625 246.875 601 248Z" fill="#C87034"/>
<path d="M797 772.999C797.33 773.989 797.66 774.979 798 775.999C790.571 776.285 790.571 776.285 787 773.999C790.38 772.959 793.478 772.919 797 772.999Z" fill="#442C1A"/>
<path d="M672 611C674.97 611.33 677.94 611.66 681 612C681 612.33 681 612.66 681 613C677.37 613.66 673.74 614.32 670 615C670.66 614.67 671.32 614.34 672 614C672 613.01 672 612.02 672 611Z" fill="#2A150A"/>
<path d="M527 555C530.375 554.875 530.375 554.875 534 555C534.66 555.66 535.32 556.32 536 557C533.043 558.478 530.258 558.06 527 558C527 557.01 527 556.02 527 555Z" fill="#DCD0BB"/>
<path d="M520 551C520.66 551.33 521.32 551.66 522 552C521.67 553.32 521.34 554.64 521 556C518.03 556 515.06 556 512 556C512 555.67 512 555.34 512 555C512.949 554.897 513.897 554.794 514.875 554.688C518.291 554.315 518.291 554.315 520 551Z" fill="#211006"/>
<path d="M229 447C229.66 447.33 230.32 447.66 231 448C231 449.65 231 451.3 231 453C230.01 453.495 230.01 453.495 229 454C228.34 454.99 227.68 455.98 227 457C227.875 449.25 227.875 449.25 229 447Z" fill="#331607"/>
<path d="M340.25 587.75C341.611 587.874 341.611 587.874 343 588C339.797 590.834 337.219 591.521 333 592C335.411 589.033 336.347 588.05 340.25 587.75Z" fill="#CD7436"/>
<path d="M631 326C632.6 329.201 631.032 331.723 630 335C629.01 335 628.02 335 627 335C628.059 331.597 629.009 328.986 631 326Z" fill="#CA7033"/>
<path d="M587 727C590.3 727 593.6 727 597 727C597 727.99 597 728.98 597 730C596.464 729.856 595.928 729.711 595.375 729.562C592.601 728.905 589.815 728.448 587 728C587 727.67 587 727.34 587 727Z" fill="#CDBDA8"/>
<path d="M334.562 643.938C335.697 643.958 336.831 643.979 338 644C335 646 335 646 333 647C332.67 647.66 332.34 648.32 332 649C331.34 647.68 330.68 646.36 330 645C331 644 331 644 334.562 643.938Z" fill="#F0E9D8"/>
<path d="M299 633C304.75 633.75 304.75 633.75 307 636C303.71 637.097 302.287 636.8 299 636C299 635.01 299 634.02 299 633Z" fill="#301205"/>
<path d="M134 488C136.31 489.65 138.62 491.3 141 493C140.01 493.495 140.01 493.495 139 494C136.969 493.066 134.965 492.068 133 491C133.33 490.01 133.66 489.02 134 488Z" fill="#301508"/>
</g>
<defs>
<clipPath id="clip0_3535_1640">
<rect width="1024" height="1024" fill="white"/>
</clipPath>
</defs>
</svg>
